<mxfile host="app.diagrams.net" modified="2023-09-18T20:36:33.667Z" agent="Mozilla/5.0 (Windows NT 10.0; Win64; x64) AppleWebKit/537.36 (KHTML, like Gecko) Chrome/117.0.0.0 Safari/537.36" etag="PmmO_6eY5sO8f7XGK-To" version="21.7.2" type="github">
  <diagram name="Page-1" id="2YBvvXClWsGukQMizWep">
    <mxGraphModel dx="1500" dy="1927" grid="1" gridSize="10" guides="1" tooltips="1" connect="1" arrows="1" fold="1" page="1" pageScale="1" pageWidth="850" pageHeight="1100" math="0" shadow="0">
      <root>
        <mxCell id="0" />
        <mxCell id="1" parent="0" />
        <mxCell id="n03E6yYdjvNQgH4y66OZ-6" value="" style="shape=umlLifeline;perimeter=lifelinePerimeter;whiteSpace=wrap;html=1;container=1;dropTarget=0;collapsible=0;recursiveResize=0;outlineConnect=0;portConstraint=eastwest;newEdgeStyle={&quot;curved&quot;:0,&quot;rounded&quot;:0};participant=umlActor;" vertex="1" parent="1">
          <mxGeometry x="80" y="240" width="20" height="580" as="geometry" />
        </mxCell>
        <mxCell id="n03E6yYdjvNQgH4y66OZ-8" value="Cliente" style="text;html=1;align=center;verticalAlign=middle;resizable=0;points=[];autosize=1;strokeColor=none;fillColor=none;" vertex="1" parent="1">
          <mxGeometry x="80" y="210" width="60" height="30" as="geometry" />
        </mxCell>
        <mxCell id="n03E6yYdjvNQgH4y66OZ-9" value="" style="shape=umlLifeline;perimeter=lifelinePerimeter;whiteSpace=wrap;html=1;container=1;dropTarget=0;collapsible=0;recursiveResize=0;outlineConnect=0;portConstraint=eastwest;newEdgeStyle={&quot;curved&quot;:0,&quot;rounded&quot;:0};participant=umlActor;" vertex="1" parent="1">
          <mxGeometry x="270" y="240" width="20" height="590" as="geometry" />
        </mxCell>
        <mxCell id="n03E6yYdjvNQgH4y66OZ-11" value="Banco" style="text;html=1;align=center;verticalAlign=middle;resizable=0;points=[];autosize=1;strokeColor=none;fillColor=none;" vertex="1" parent="1">
          <mxGeometry x="250" y="210" width="60" height="30" as="geometry" />
        </mxCell>
        <mxCell id="n03E6yYdjvNQgH4y66OZ-15" value="Solicita a abertura da conta" style="html=1;verticalAlign=bottom;endArrow=block;curved=0;rounded=0;" edge="1" parent="1">
          <mxGeometry x="0.0754" y="10" width="80" relative="1" as="geometry">
            <mxPoint x="110.5" y="290" as="sourcePoint" />
            <mxPoint x="275" y="290" as="targetPoint" />
            <Array as="points">
              <mxPoint x="90" y="290" />
              <mxPoint x="190.5" y="290" />
            </Array>
            <mxPoint x="1" as="offset" />
          </mxGeometry>
        </mxCell>
        <mxCell id="n03E6yYdjvNQgH4y66OZ-20" value="&amp;nbsp;Consulta Cliente" style="html=1;verticalAlign=bottom;endArrow=block;curved=0;rounded=0;" edge="1" parent="1" target="n03E6yYdjvNQgH4y66OZ-24">
          <mxGeometry width="80" relative="1" as="geometry">
            <mxPoint x="280" y="330" as="sourcePoint" />
            <mxPoint x="440" y="330" as="targetPoint" />
            <Array as="points">
              <mxPoint x="420" y="330" />
            </Array>
          </mxGeometry>
        </mxCell>
        <mxCell id="n03E6yYdjvNQgH4y66OZ-21" value="Pessoa Física" style="shape=umlLifeline;perimeter=lifelinePerimeter;whiteSpace=wrap;html=1;container=1;dropTarget=0;collapsible=0;recursiveResize=0;outlineConnect=0;portConstraint=eastwest;newEdgeStyle={&quot;curved&quot;:0,&quot;rounded&quot;:0};" vertex="1" parent="1">
          <mxGeometry x="470" y="240" width="100" height="630" as="geometry" />
        </mxCell>
        <mxCell id="n03E6yYdjvNQgH4y66OZ-24" value="" style="html=1;points=[[0,0,0,0,5],[0,1,0,0,-5],[1,0,0,0,5],[1,1,0,0,-5]];perimeter=orthogonalPerimeter;outlineConnect=0;targetShapes=umlLifeline;portConstraint=eastwest;newEdgeStyle={&quot;curved&quot;:0,&quot;rounded&quot;:0};" vertex="1" parent="n03E6yYdjvNQgH4y66OZ-21">
          <mxGeometry x="37.5" y="70" width="22.5" height="70" as="geometry" />
        </mxCell>
        <mxCell id="n03E6yYdjvNQgH4y66OZ-33" value="" style="html=1;points=[[0,0,0,0,5],[0,1,0,0,-5],[1,0,0,0,5],[1,1,0,0,-5]];perimeter=orthogonalPerimeter;outlineConnect=0;targetShapes=umlLifeline;portConstraint=eastwest;newEdgeStyle={&quot;curved&quot;:0,&quot;rounded&quot;:0};" vertex="1" parent="n03E6yYdjvNQgH4y66OZ-21">
          <mxGeometry x="37.5" y="160" width="22.5" height="70" as="geometry" />
        </mxCell>
        <mxCell id="n03E6yYdjvNQgH4y66OZ-22" value="Conta Comum" style="shape=umlLifeline;whiteSpace=wrap;html=1;container=1;dropTarget=0;collapsible=0;recursiveResize=0;outlineConnect=0;portConstraint=eastwest;newEdgeStyle={&quot;curved&quot;:0,&quot;rounded&quot;:0};points=[[0,0,0,0,5],[0,1,0,0,-5],[1,0,0,0,5],[1,1,0,0,-5]];perimeter=rectanglePerimeter;targetShapes=umlLifeline;participant=label;" vertex="1" parent="1">
          <mxGeometry x="670" y="240" width="100" height="610" as="geometry" />
        </mxCell>
        <mxCell id="n03E6yYdjvNQgH4y66OZ-40" value="" style="html=1;points=[[0,0,0,0,5],[0,1,0,0,-5],[1,0,0,0,5],[1,1,0,0,-5]];perimeter=orthogonalPerimeter;outlineConnect=0;targetShapes=umlLifeline;portConstraint=eastwest;newEdgeStyle={&quot;curved&quot;:0,&quot;rounded&quot;:0};" vertex="1" parent="n03E6yYdjvNQgH4y66OZ-22">
          <mxGeometry x="45" y="230" width="10" height="80" as="geometry" />
        </mxCell>
        <mxCell id="n03E6yYdjvNQgH4y66OZ-47" value="" style="html=1;points=[[0,0,0,0,5],[0,1,0,0,-5],[1,0,0,0,5],[1,1,0,0,-5]];perimeter=orthogonalPerimeter;outlineConnect=0;targetShapes=umlLifeline;portConstraint=eastwest;newEdgeStyle={&quot;curved&quot;:0,&quot;rounded&quot;:0};direction=west;" vertex="1" parent="n03E6yYdjvNQgH4y66OZ-22">
          <mxGeometry x="45" y="320" width="10" height="80" as="geometry" />
        </mxCell>
        <mxCell id="n03E6yYdjvNQgH4y66OZ-23" value="Se existir (Dados Cliente)" style="html=1;verticalAlign=bottom;endArrow=open;dashed=1;endSize=8;curved=0;rounded=0;" edge="1" parent="1" target="n03E6yYdjvNQgH4y66OZ-9">
          <mxGeometry relative="1" as="geometry">
            <mxPoint x="505.5" y="360" as="sourcePoint" />
            <mxPoint x="345" y="360" as="targetPoint" />
          </mxGeometry>
        </mxCell>
        <mxCell id="n03E6yYdjvNQgH4y66OZ-30" value="Histórico de Operações" style="shape=umlLifeline;perimeter=lifelinePerimeter;whiteSpace=wrap;html=1;container=1;dropTarget=0;collapsible=0;recursiveResize=0;outlineConnect=0;portConstraint=eastwest;newEdgeStyle={&quot;curved&quot;:0,&quot;rounded&quot;:0};" vertex="1" parent="1">
          <mxGeometry x="850" y="260" width="100" height="600" as="geometry" />
        </mxCell>
        <mxCell id="n03E6yYdjvNQgH4y66OZ-28" value="" style="html=1;points=[[0,0,0,0,5],[0,1,0,0,-5],[1,0,0,0,5],[1,1,0,0,-5]];perimeter=orthogonalPerimeter;outlineConnect=0;targetShapes=umlLifeline;portConstraint=eastwest;newEdgeStyle={&quot;curved&quot;:0,&quot;rounded&quot;:0};" vertex="1" parent="n03E6yYdjvNQgH4y66OZ-30">
          <mxGeometry x="45" y="240" width="10" height="60" as="geometry" />
        </mxCell>
        <mxCell id="n03E6yYdjvNQgH4y66OZ-29" value="" style="endArrow=classic;startArrow=none;html=1;rounded=0;startFill=0;" edge="1" parent="n03E6yYdjvNQgH4y66OZ-30" source="n03E6yYdjvNQgH4y66OZ-28" target="n03E6yYdjvNQgH4y66OZ-28">
          <mxGeometry width="50" height="50" relative="1" as="geometry">
            <mxPoint x="-430" y="170" as="sourcePoint" />
            <mxPoint x="-380" y="120" as="targetPoint" />
          </mxGeometry>
        </mxCell>
        <mxCell id="n03E6yYdjvNQgH4y66OZ-50" value="" style="html=1;points=[[0,0,0,0,5],[0,1,0,0,-5],[1,0,0,0,5],[1,1,0,0,-5]];perimeter=orthogonalPerimeter;outlineConnect=0;targetShapes=umlLifeline;portConstraint=eastwest;newEdgeStyle={&quot;curved&quot;:0,&quot;rounded&quot;:0};" vertex="1" parent="n03E6yYdjvNQgH4y66OZ-30">
          <mxGeometry x="45" y="330" width="10" height="40" as="geometry" />
        </mxCell>
        <mxCell id="n03E6yYdjvNQgH4y66OZ-55" style="edgeStyle=orthogonalEdgeStyle;rounded=0;orthogonalLoop=1;jettySize=auto;html=1;curved=0;exitX=1;exitY=0;exitDx=0;exitDy=5;exitPerimeter=0;entryX=1;entryY=1;entryDx=0;entryDy=-5;entryPerimeter=0;" edge="1" parent="n03E6yYdjvNQgH4y66OZ-30" source="n03E6yYdjvNQgH4y66OZ-50" target="n03E6yYdjvNQgH4y66OZ-50">
          <mxGeometry relative="1" as="geometry">
            <Array as="points">
              <mxPoint x="80" y="335" />
              <mxPoint x="80" y="365" />
            </Array>
          </mxGeometry>
        </mxCell>
        <mxCell id="n03E6yYdjvNQgH4y66OZ-34" value="" style="html=1;verticalAlign=bottom;endArrow=block;curved=0;rounded=0;" edge="1" parent="1" source="n03E6yYdjvNQgH4y66OZ-9">
          <mxGeometry width="80" relative="1" as="geometry">
            <mxPoint x="330" y="420" as="sourcePoint" />
            <mxPoint x="510" y="420" as="targetPoint" />
          </mxGeometry>
        </mxCell>
        <mxCell id="n03E6yYdjvNQgH4y66OZ-35" value=". Se necessário (Atualizar) [Gravar]" style="text;html=1;align=center;verticalAlign=middle;resizable=0;points=[];autosize=1;strokeColor=none;fillColor=none;" vertex="1" parent="1">
          <mxGeometry x="285" y="395" width="210" height="30" as="geometry" />
        </mxCell>
        <mxCell id="n03E6yYdjvNQgH4y66OZ-36" value="Cliente Atualizado" style="html=1;verticalAlign=bottom;endArrow=open;dashed=1;endSize=8;curved=0;rounded=0;" edge="1" parent="1" source="n03E6yYdjvNQgH4y66OZ-33">
          <mxGeometry relative="1" as="geometry">
            <mxPoint x="500" y="460" as="sourcePoint" />
            <mxPoint x="280" y="460" as="targetPoint" />
          </mxGeometry>
        </mxCell>
        <mxCell id="n03E6yYdjvNQgH4y66OZ-37" value="Registrar Solicitação" style="html=1;verticalAlign=bottom;endArrow=block;curved=0;rounded=0;" edge="1" parent="1">
          <mxGeometry width="80" relative="1" as="geometry">
            <mxPoint x="280" y="520" as="sourcePoint" />
            <mxPoint x="710" y="520" as="targetPoint" />
          </mxGeometry>
        </mxCell>
        <mxCell id="n03E6yYdjvNQgH4y66OZ-39" value="" style="html=1;verticalAlign=bottom;endArrow=open;dashed=1;endSize=8;curved=0;rounded=0;" edge="1" parent="1" target="n03E6yYdjvNQgH4y66OZ-9">
          <mxGeometry relative="1" as="geometry">
            <mxPoint x="710" y="560" as="sourcePoint" />
            <mxPoint x="810" y="560" as="targetPoint" />
          </mxGeometry>
        </mxCell>
        <mxCell id="n03E6yYdjvNQgH4y66OZ-41" value="Gravar" style="html=1;verticalAlign=bottom;endArrow=block;curved=0;rounded=0;" edge="1" parent="1" target="n03E6yYdjvNQgH4y66OZ-30">
          <mxGeometry width="80" relative="1" as="geometry">
            <mxPoint x="730" y="520" as="sourcePoint" />
            <mxPoint x="810" y="520" as="targetPoint" />
          </mxGeometry>
        </mxCell>
        <mxCell id="n03E6yYdjvNQgH4y66OZ-42" value="Confirmar Pedido" style="text;html=1;align=center;verticalAlign=middle;resizable=0;points=[];autosize=1;strokeColor=none;fillColor=none;" vertex="1" parent="1">
          <mxGeometry x="430" y="528" width="120" height="30" as="geometry" />
        </mxCell>
        <mxCell id="n03E6yYdjvNQgH4y66OZ-44" value="Pedido Aprovado" style="html=1;verticalAlign=bottom;endArrow=open;dashed=1;endSize=8;curved=0;rounded=0;" edge="1" parent="1" source="n03E6yYdjvNQgH4y66OZ-9">
          <mxGeometry relative="1" as="geometry">
            <mxPoint x="250" y="560" as="sourcePoint" />
            <mxPoint x="90" y="560" as="targetPoint" />
          </mxGeometry>
        </mxCell>
        <mxCell id="n03E6yYdjvNQgH4y66OZ-45" value="Fornecer senha e valor ()" style="html=1;verticalAlign=bottom;endArrow=block;curved=0;rounded=0;" edge="1" parent="1" target="n03E6yYdjvNQgH4y66OZ-9">
          <mxGeometry width="80" relative="1" as="geometry">
            <mxPoint x="90" y="600" as="sourcePoint" />
            <mxPoint x="170" y="600" as="targetPoint" />
          </mxGeometry>
        </mxCell>
        <mxCell id="n03E6yYdjvNQgH4y66OZ-46" value="Abrir conta (Abertura)" style="html=1;verticalAlign=bottom;endArrow=block;curved=0;rounded=0;" edge="1" parent="1" target="n03E6yYdjvNQgH4y66OZ-47">
          <mxGeometry width="80" relative="1" as="geometry">
            <mxPoint x="280" y="600" as="sourcePoint" />
            <mxPoint x="717" y="595" as="targetPoint" />
          </mxGeometry>
        </mxCell>
        <mxCell id="n03E6yYdjvNQgH4y66OZ-49" value="Gravar" style="html=1;verticalAlign=bottom;endArrow=block;curved=0;rounded=0;" edge="1" parent="1" target="n03E6yYdjvNQgH4y66OZ-30">
          <mxGeometry width="80" relative="1" as="geometry">
            <mxPoint x="730" y="600" as="sourcePoint" />
            <mxPoint x="810" y="600" as="targetPoint" />
            <Array as="points">
              <mxPoint x="840" y="600" />
            </Array>
          </mxGeometry>
        </mxCell>
        <mxCell id="n03E6yYdjvNQgH4y66OZ-56" value="Número da conta gerado" style="html=1;verticalAlign=bottom;endArrow=open;dashed=1;endSize=8;curved=0;rounded=0;" edge="1" parent="1" target="n03E6yYdjvNQgH4y66OZ-9">
          <mxGeometry relative="1" as="geometry">
            <mxPoint x="710" y="630" as="sourcePoint" />
            <mxPoint x="630" y="630" as="targetPoint" />
          </mxGeometry>
        </mxCell>
        <mxCell id="n03E6yYdjvNQgH4y66OZ-57" value="Abertura concluída" style="html=1;verticalAlign=bottom;endArrow=open;dashed=1;endSize=8;curved=0;rounded=0;" edge="1" parent="1" target="n03E6yYdjvNQgH4y66OZ-6">
          <mxGeometry relative="1" as="geometry">
            <mxPoint x="280" y="630" as="sourcePoint" />
            <mxPoint x="200" y="630" as="targetPoint" />
          </mxGeometry>
        </mxCell>
        <mxCell id="n03E6yYdjvNQgH4y66OZ-58" value="biblioteca1 : Biblioteca" style="swimlane;fontStyle=1;align=center;verticalAlign=top;childLayout=stackLayout;horizontal=1;startSize=26;horizontalStack=0;resizeParent=1;resizeParentMax=0;resizeLast=0;collapsible=1;marginBottom=0;whiteSpace=wrap;html=1;" vertex="1" parent="1">
          <mxGeometry x="340" y="-210" width="185" height="52" as="geometry" />
        </mxCell>
        <mxCell id="n03E6yYdjvNQgH4y66OZ-59" value="+ livro: O diário de Anne Frank" style="text;strokeColor=none;fillColor=none;align=left;verticalAlign=top;spacingLeft=4;spacingRight=4;overflow=hidden;rotatable=0;points=[[0,0.5],[1,0.5]];portConstraint=eastwest;whiteSpace=wrap;html=1;" vertex="1" parent="n03E6yYdjvNQgH4y66OZ-58">
          <mxGeometry y="26" width="185" height="26" as="geometry" />
        </mxCell>
        <mxCell id="n03E6yYdjvNQgH4y66OZ-60" value="livro1 : Livro" style="swimlane;fontStyle=1;align=center;verticalAlign=top;childLayout=stackLayout;horizontal=1;startSize=26;horizontalStack=0;resizeParent=1;resizeParentMax=0;resizeLast=0;collapsible=1;marginBottom=0;whiteSpace=wrap;html=1;" vertex="1" parent="1">
          <mxGeometry x="880" y="-210" width="190" height="104" as="geometry" />
        </mxCell>
        <mxCell id="n03E6yYdjvNQgH4y66OZ-61" value="- titulo: O diário de Anne Frank" style="text;strokeColor=none;fillColor=none;align=left;verticalAlign=top;spacingLeft=4;spacingRight=4;overflow=hidden;rotatable=0;points=[[0,0.5],[1,0.5]];portConstraint=eastwest;whiteSpace=wrap;html=1;" vertex="1" parent="n03E6yYdjvNQgH4y66OZ-60">
          <mxGeometry y="26" width="190" height="26" as="geometry" />
        </mxCell>
        <mxCell id="n03E6yYdjvNQgH4y66OZ-62" value="- autor: Anne Frank&amp;nbsp;" style="text;strokeColor=none;fillColor=none;align=left;verticalAlign=top;spacingLeft=4;spacingRight=4;overflow=hidden;rotatable=0;points=[[0,0.5],[1,0.5]];portConstraint=eastwest;whiteSpace=wrap;html=1;" vertex="1" parent="n03E6yYdjvNQgH4y66OZ-60">
          <mxGeometry y="52" width="190" height="26" as="geometry" />
        </mxCell>
        <mxCell id="n03E6yYdjvNQgH4y66OZ-63" value="- id: 1514" style="text;strokeColor=none;fillColor=none;align=left;verticalAlign=top;spacingLeft=4;spacingRight=4;overflow=hidden;rotatable=0;points=[[0,0.5],[1,0.5]];portConstraint=eastwest;whiteSpace=wrap;html=1;" vertex="1" parent="n03E6yYdjvNQgH4y66OZ-60">
          <mxGeometry y="78" width="190" height="26" as="geometry" />
        </mxCell>
        <mxCell id="n03E6yYdjvNQgH4y66OZ-64" value="pessoa1 : Pessoa" style="swimlane;fontStyle=1;align=center;verticalAlign=top;childLayout=stackLayout;horizontal=1;startSize=26;horizontalStack=0;resizeParent=1;resizeParentMax=0;resizeLast=0;collapsible=1;marginBottom=0;whiteSpace=wrap;html=1;" vertex="1" parent="1">
          <mxGeometry x="120" y="-210" width="160" height="112" as="geometry" />
        </mxCell>
        <mxCell id="n03E6yYdjvNQgH4y66OZ-65" value="- nome: Shelly" style="text;strokeColor=none;fillColor=none;align=left;verticalAlign=top;spacingLeft=4;spacingRight=4;overflow=hidden;rotatable=0;points=[[0,0.5],[1,0.5]];portConstraint=eastwest;whiteSpace=wrap;html=1;" vertex="1" parent="n03E6yYdjvNQgH4y66OZ-64">
          <mxGeometry y="26" width="160" height="26" as="geometry" />
        </mxCell>
        <mxCell id="n03E6yYdjvNQgH4y66OZ-66" value="- identificação: 12345" style="text;strokeColor=none;fillColor=none;align=left;verticalAlign=top;spacingLeft=4;spacingRight=4;overflow=hidden;rotatable=0;points=[[0,0.5],[1,0.5]];portConstraint=eastwest;whiteSpace=wrap;html=1;" vertex="1" parent="n03E6yYdjvNQgH4y66OZ-64">
          <mxGeometry y="52" width="160" height="26" as="geometry" />
        </mxCell>
        <mxCell id="n03E6yYdjvNQgH4y66OZ-67" value="" style="line;strokeWidth=1;fillColor=none;align=left;verticalAlign=middle;spacingTop=-1;spacingLeft=3;spacingRight=3;rotatable=0;labelPosition=right;points=[];portConstraint=eastwest;strokeColor=inherit;" vertex="1" parent="n03E6yYdjvNQgH4y66OZ-64">
          <mxGeometry y="78" width="160" height="8" as="geometry" />
        </mxCell>
        <mxCell id="n03E6yYdjvNQgH4y66OZ-68" value="+ emprestarLivros():" style="text;strokeColor=none;fillColor=none;align=left;verticalAlign=top;spacingLeft=4;spacingRight=4;overflow=hidden;rotatable=0;points=[[0,0.5],[1,0.5]];portConstraint=eastwest;whiteSpace=wrap;html=1;" vertex="1" parent="n03E6yYdjvNQgH4y66OZ-64">
          <mxGeometry y="86" width="160" height="26" as="geometry" />
        </mxCell>
        <mxCell id="n03E6yYdjvNQgH4y66OZ-69" value="emprestimo1 : Emprestimo" style="swimlane;fontStyle=1;align=center;verticalAlign=top;childLayout=stackLayout;horizontal=1;startSize=26;horizontalStack=0;resizeParent=1;resizeParentMax=0;resizeLast=0;collapsible=1;marginBottom=0;whiteSpace=wrap;html=1;" vertex="1" parent="1">
          <mxGeometry x="595" y="-202" width="210" height="122" as="geometry" />
        </mxCell>
        <mxCell id="n03E6yYdjvNQgH4y66OZ-70" value="+ registroLivro: O diário de Anne Frank" style="text;strokeColor=none;fillColor=none;align=left;verticalAlign=top;spacingLeft=4;spacingRight=4;overflow=hidden;rotatable=0;points=[[0,0.5],[1,0.5]];portConstraint=eastwest;whiteSpace=wrap;html=1;" vertex="1" parent="n03E6yYdjvNQgH4y66OZ-69">
          <mxGeometry y="26" width="210" height="44" as="geometry" />
        </mxCell>
        <mxCell id="n03E6yYdjvNQgH4y66OZ-71" value="+ registroPessoa: Shelly" style="text;strokeColor=none;fillColor=none;align=left;verticalAlign=top;spacingLeft=4;spacingRight=4;overflow=hidden;rotatable=0;points=[[0,0.5],[1,0.5]];portConstraint=eastwest;whiteSpace=wrap;html=1;" vertex="1" parent="n03E6yYdjvNQgH4y66OZ-69">
          <mxGeometry y="70" width="210" height="26" as="geometry" />
        </mxCell>
        <mxCell id="n03E6yYdjvNQgH4y66OZ-72" value="+ dataEmprestimo: 18-09-23" style="text;strokeColor=none;fillColor=none;align=left;verticalAlign=top;spacingLeft=4;spacingRight=4;overflow=hidden;rotatable=0;points=[[0,0.5],[1,0.5]];portConstraint=eastwest;whiteSpace=wrap;html=1;" vertex="1" parent="n03E6yYdjvNQgH4y66OZ-69">
          <mxGeometry y="96" width="210" height="26" as="geometry" />
        </mxCell>
        <mxCell id="n03E6yYdjvNQgH4y66OZ-73" value="" style="endArrow=none;html=1;rounded=0;exitX=1;exitY=0.5;exitDx=0;exitDy=0;entryX=0;entryY=0.5;entryDx=0;entryDy=0;" edge="1" parent="1" source="n03E6yYdjvNQgH4y66OZ-65" target="n03E6yYdjvNQgH4y66OZ-59">
          <mxGeometry width="50" height="50" relative="1" as="geometry">
            <mxPoint x="553" y="-116" as="sourcePoint" />
            <mxPoint x="603" y="-166" as="targetPoint" />
          </mxGeometry>
        </mxCell>
        <mxCell id="n03E6yYdjvNQgH4y66OZ-74" value="" style="endArrow=none;html=1;rounded=0;exitX=1;exitY=0.5;exitDx=0;exitDy=0;entryX=0;entryY=0.25;entryDx=0;entryDy=0;" edge="1" parent="1" source="n03E6yYdjvNQgH4y66OZ-59" target="n03E6yYdjvNQgH4y66OZ-69">
          <mxGeometry width="50" height="50" relative="1" as="geometry">
            <mxPoint x="553" y="-116" as="sourcePoint" />
            <mxPoint x="603" y="-166" as="targetPoint" />
          </mxGeometry>
        </mxCell>
        <mxCell id="n03E6yYdjvNQgH4y66OZ-75" value="" style="endArrow=none;html=1;rounded=0;exitX=1;exitY=0.25;exitDx=0;exitDy=0;entryX=0;entryY=0.5;entryDx=0;entryDy=0;" edge="1" parent="1" source="n03E6yYdjvNQgH4y66OZ-69" target="n03E6yYdjvNQgH4y66OZ-61">
          <mxGeometry width="50" height="50" relative="1" as="geometry">
            <mxPoint x="553" y="-116" as="sourcePoint" />
            <mxPoint x="603" y="-166" as="targetPoint" />
          </mxGeometry>
        </mxCell>
        <mxCell id="n03E6yYdjvNQgH4y66OZ-76" value="Biblioteca" style="swimlane;fontStyle=1;align=center;verticalAlign=top;childLayout=stackLayout;horizontal=1;startSize=26;horizontalStack=0;resizeParent=1;resizeParentMax=0;resizeLast=0;collapsible=1;marginBottom=0;whiteSpace=wrap;html=1;" vertex="1" parent="1">
          <mxGeometry x="345" y="-368" width="185" height="52" as="geometry" />
        </mxCell>
        <mxCell id="n03E6yYdjvNQgH4y66OZ-77" value="+ livro: Lista[ ]" style="text;strokeColor=none;fillColor=none;align=left;verticalAlign=top;spacingLeft=4;spacingRight=4;overflow=hidden;rotatable=0;points=[[0,0.5],[1,0.5]];portConstraint=eastwest;whiteSpace=wrap;html=1;" vertex="1" parent="n03E6yYdjvNQgH4y66OZ-76">
          <mxGeometry y="26" width="185" height="26" as="geometry" />
        </mxCell>
        <mxCell id="n03E6yYdjvNQgH4y66OZ-78" value="Livro" style="swimlane;fontStyle=1;align=center;verticalAlign=top;childLayout=stackLayout;horizontal=1;startSize=26;horizontalStack=0;resizeParent=1;resizeParentMax=0;resizeLast=0;collapsible=1;marginBottom=0;whiteSpace=wrap;html=1;" vertex="1" parent="1">
          <mxGeometry x="815" y="-410" width="160" height="104" as="geometry" />
        </mxCell>
        <mxCell id="n03E6yYdjvNQgH4y66OZ-79" value="- titulo" style="text;strokeColor=none;fillColor=none;align=left;verticalAlign=top;spacingLeft=4;spacingRight=4;overflow=hidden;rotatable=0;points=[[0,0.5],[1,0.5]];portConstraint=eastwest;whiteSpace=wrap;html=1;" vertex="1" parent="n03E6yYdjvNQgH4y66OZ-78">
          <mxGeometry y="26" width="160" height="26" as="geometry" />
        </mxCell>
        <mxCell id="n03E6yYdjvNQgH4y66OZ-80" value="- autor" style="text;strokeColor=none;fillColor=none;align=left;verticalAlign=top;spacingLeft=4;spacingRight=4;overflow=hidden;rotatable=0;points=[[0,0.5],[1,0.5]];portConstraint=eastwest;whiteSpace=wrap;html=1;" vertex="1" parent="n03E6yYdjvNQgH4y66OZ-78">
          <mxGeometry y="52" width="160" height="26" as="geometry" />
        </mxCell>
        <mxCell id="n03E6yYdjvNQgH4y66OZ-81" value="- identifcação" style="text;strokeColor=none;fillColor=none;align=left;verticalAlign=top;spacingLeft=4;spacingRight=4;overflow=hidden;rotatable=0;points=[[0,0.5],[1,0.5]];portConstraint=eastwest;whiteSpace=wrap;html=1;" vertex="1" parent="n03E6yYdjvNQgH4y66OZ-78">
          <mxGeometry y="78" width="160" height="26" as="geometry" />
        </mxCell>
        <mxCell id="n03E6yYdjvNQgH4y66OZ-82" value="Pessoa" style="swimlane;fontStyle=1;align=center;verticalAlign=top;childLayout=stackLayout;horizontal=1;startSize=26;horizontalStack=0;resizeParent=1;resizeParentMax=0;resizeLast=0;collapsible=1;marginBottom=0;whiteSpace=wrap;html=1;" vertex="1" parent="1">
          <mxGeometry x="125" y="-480" width="160" height="112" as="geometry" />
        </mxCell>
        <mxCell id="n03E6yYdjvNQgH4y66OZ-83" value="- nome" style="text;strokeColor=none;fillColor=none;align=left;verticalAlign=top;spacingLeft=4;spacingRight=4;overflow=hidden;rotatable=0;points=[[0,0.5],[1,0.5]];portConstraint=eastwest;whiteSpace=wrap;html=1;" vertex="1" parent="n03E6yYdjvNQgH4y66OZ-82">
          <mxGeometry y="26" width="160" height="26" as="geometry" />
        </mxCell>
        <mxCell id="n03E6yYdjvNQgH4y66OZ-84" value="- identificação" style="text;strokeColor=none;fillColor=none;align=left;verticalAlign=top;spacingLeft=4;spacingRight=4;overflow=hidden;rotatable=0;points=[[0,0.5],[1,0.5]];portConstraint=eastwest;whiteSpace=wrap;html=1;" vertex="1" parent="n03E6yYdjvNQgH4y66OZ-82">
          <mxGeometry y="52" width="160" height="26" as="geometry" />
        </mxCell>
        <mxCell id="n03E6yYdjvNQgH4y66OZ-85" value="" style="line;strokeWidth=1;fillColor=none;align=left;verticalAlign=middle;spacingTop=-1;spacingLeft=3;spacingRight=3;rotatable=0;labelPosition=right;points=[];portConstraint=eastwest;strokeColor=inherit;" vertex="1" parent="n03E6yYdjvNQgH4y66OZ-82">
          <mxGeometry y="78" width="160" height="8" as="geometry" />
        </mxCell>
        <mxCell id="n03E6yYdjvNQgH4y66OZ-86" value="+ emprestarLivros():" style="text;strokeColor=none;fillColor=none;align=left;verticalAlign=top;spacingLeft=4;spacingRight=4;overflow=hidden;rotatable=0;points=[[0,0.5],[1,0.5]];portConstraint=eastwest;whiteSpace=wrap;html=1;" vertex="1" parent="n03E6yYdjvNQgH4y66OZ-82">
          <mxGeometry y="86" width="160" height="26" as="geometry" />
        </mxCell>
        <mxCell id="n03E6yYdjvNQgH4y66OZ-87" value="Emprestimo" style="swimlane;fontStyle=1;align=center;verticalAlign=top;childLayout=stackLayout;horizontal=1;startSize=26;horizontalStack=0;resizeParent=1;resizeParentMax=0;resizeLast=0;collapsible=1;marginBottom=0;whiteSpace=wrap;html=1;" vertex="1" parent="1">
          <mxGeometry x="575" y="-520" width="160" height="104" as="geometry" />
        </mxCell>
        <mxCell id="n03E6yYdjvNQgH4y66OZ-88" value="+ registroLivro: Livro" style="text;strokeColor=none;fillColor=none;align=left;verticalAlign=top;spacingLeft=4;spacingRight=4;overflow=hidden;rotatable=0;points=[[0,0.5],[1,0.5]];portConstraint=eastwest;whiteSpace=wrap;html=1;" vertex="1" parent="n03E6yYdjvNQgH4y66OZ-87">
          <mxGeometry y="26" width="160" height="26" as="geometry" />
        </mxCell>
        <mxCell id="n03E6yYdjvNQgH4y66OZ-89" value="+ registroPessoa: Pessoa" style="text;strokeColor=none;fillColor=none;align=left;verticalAlign=top;spacingLeft=4;spacingRight=4;overflow=hidden;rotatable=0;points=[[0,0.5],[1,0.5]];portConstraint=eastwest;whiteSpace=wrap;html=1;" vertex="1" parent="n03E6yYdjvNQgH4y66OZ-87">
          <mxGeometry y="52" width="160" height="26" as="geometry" />
        </mxCell>
        <mxCell id="n03E6yYdjvNQgH4y66OZ-90" value="+ dataEmprestimo: String" style="text;strokeColor=none;fillColor=none;align=left;verticalAlign=top;spacingLeft=4;spacingRight=4;overflow=hidden;rotatable=0;points=[[0,0.5],[1,0.5]];portConstraint=eastwest;whiteSpace=wrap;html=1;" vertex="1" parent="n03E6yYdjvNQgH4y66OZ-87">
          <mxGeometry y="78" width="160" height="26" as="geometry" />
        </mxCell>
        <mxCell id="n03E6yYdjvNQgH4y66OZ-91" value="" style="endArrow=none;html=1;rounded=0;exitX=1;exitY=0.5;exitDx=0;exitDy=0;entryX=0;entryY=0.5;entryDx=0;entryDy=0;" edge="1" parent="1" source="n03E6yYdjvNQgH4y66OZ-83" target="n03E6yYdjvNQgH4y66OZ-77">
          <mxGeometry width="50" height="50" relative="1" as="geometry">
            <mxPoint x="558" y="-386" as="sourcePoint" />
            <mxPoint x="608" y="-436" as="targetPoint" />
            <Array as="points">
              <mxPoint x="315" y="-441" />
              <mxPoint x="315" y="-329" />
            </Array>
          </mxGeometry>
        </mxCell>
        <mxCell id="n03E6yYdjvNQgH4y66OZ-92" value="" style="endArrow=none;html=1;rounded=0;exitX=1;exitY=0.5;exitDx=0;exitDy=0;entryX=0;entryY=0.5;entryDx=0;entryDy=0;" edge="1" parent="1" source="n03E6yYdjvNQgH4y66OZ-77" target="n03E6yYdjvNQgH4y66OZ-89">
          <mxGeometry width="50" height="50" relative="1" as="geometry">
            <mxPoint x="541" y="-329" as="sourcePoint" />
            <mxPoint x="606" y="-441" as="targetPoint" />
            <Array as="points">
              <mxPoint x="555" y="-330" />
              <mxPoint x="555" y="-455" />
            </Array>
          </mxGeometry>
        </mxCell>
        <mxCell id="n03E6yYdjvNQgH4y66OZ-93" value="" style="endArrow=none;html=1;rounded=0;exitX=1;exitY=0.5;exitDx=0;exitDy=0;entryX=0;entryY=0.5;entryDx=0;entryDy=0;" edge="1" parent="1" source="n03E6yYdjvNQgH4y66OZ-88" target="n03E6yYdjvNQgH4y66OZ-79">
          <mxGeometry width="50" height="50" relative="1" as="geometry">
            <mxPoint x="558" y="-386" as="sourcePoint" />
            <mxPoint x="608" y="-436" as="targetPoint" />
            <Array as="points">
              <mxPoint x="785" y="-480" />
              <mxPoint x="785" y="-370" />
            </Array>
          </mxGeometry>
        </mxCell>
        <mxCell id="n03E6yYdjvNQgH4y66OZ-94" value="(1...*)" style="text;html=1;strokeColor=none;fillColor=none;align=center;verticalAlign=middle;whiteSpace=wrap;rounded=0;" vertex="1" parent="1">
          <mxGeometry x="275" y="-469" width="60" height="30" as="geometry" />
        </mxCell>
        <mxCell id="n03E6yYdjvNQgH4y66OZ-95" value="(1...1)" style="text;html=1;strokeColor=none;fillColor=none;align=center;verticalAlign=middle;whiteSpace=wrap;rounded=0;" vertex="1" parent="1">
          <mxGeometry x="295" y="-330" width="60" height="30" as="geometry" />
        </mxCell>
        <mxCell id="n03E6yYdjvNQgH4y66OZ-96" value="(1...*)" style="text;html=1;strokeColor=none;fillColor=none;align=center;verticalAlign=middle;whiteSpace=wrap;rounded=0;" vertex="1" parent="1">
          <mxGeometry x="525" y="-330" width="60" height="30" as="geometry" />
        </mxCell>
        <mxCell id="n03E6yYdjvNQgH4y66OZ-97" value="(1...*)" style="text;html=1;strokeColor=none;fillColor=none;align=center;verticalAlign=middle;whiteSpace=wrap;rounded=0;" vertex="1" parent="1">
          <mxGeometry x="520" y="-483" width="60" height="30" as="geometry" />
        </mxCell>
        <mxCell id="n03E6yYdjvNQgH4y66OZ-98" value="(1...*)" style="text;html=1;strokeColor=none;fillColor=none;align=center;verticalAlign=middle;whiteSpace=wrap;rounded=0;" vertex="1" parent="1">
          <mxGeometry x="735" y="-513" width="60" height="30" as="geometry" />
        </mxCell>
        <mxCell id="n03E6yYdjvNQgH4y66OZ-99" value="(1...*)" style="text;html=1;strokeColor=none;fillColor=none;align=center;verticalAlign=middle;whiteSpace=wrap;rounded=0;" vertex="1" parent="1">
          <mxGeometry x="755" y="-360" width="60" height="30" as="geometry" />
        </mxCell>
      </root>
    </mxGraphModel>
  </diagram>
</mxfile>
